<svg width="13.304688" height="12.672729" viewBox="0 0 13.3047 12.6727" fill="none" xmlns="http://www.w3.org/2000/svg" xmlns:xlink="http://www.w3.org/1999/xlink">
	<desc>
			Created with Pixso.
	</desc>
	<defs/>
	<path id="Vector" d="M10.34 12.66C10.24 12.66 10.13 12.64 10.04 12.59L6.64 10.81L3.24 12.59C3.13 12.65 3 12.68 2.88 12.67C2.75 12.66 2.63 12.61 2.53 12.54C2.43 12.47 2.35 12.37 2.31 12.25C2.26 12.13 2.25 12.01 2.27 11.88L2.94 8.13L0.19 5.46C0.1 5.38 0.04 5.27 0.02 5.15C-0.01 5.04 -0.01 4.91 0.02 4.8C0.06 4.68 0.13 4.57 0.23 4.49C0.32 4.41 0.44 4.36 0.56 4.34L4.36 3.79L6.04 0.37C6.09 0.26 6.18 0.16 6.28 0.1C6.39 0.03 6.51 0 6.64 0C6.76 0 6.89 0.03 6.99 0.1C7.1 0.16 7.18 0.26 7.24 0.37L8.93 3.78L12.73 4.34C12.85 4.36 12.97 4.41 13.07 4.49C13.16 4.57 13.23 4.67 13.27 4.79C13.31 4.91 13.31 5.03 13.28 5.15C13.25 5.26 13.19 5.37 13.1 5.46L10.36 8.12L11.02 11.88C11.05 12 11.04 12.13 10.99 12.25C10.94 12.37 10.86 12.47 10.76 12.54C10.64 12.63 10.49 12.67 10.34 12.66Z" fill="#F95F5F" fill-opacity="1.000000" fill-rule="nonzero"/>
</svg>
